<svg width="23" height="45" viewBox="0 0 23 45" fill="none" xmlns="http://www.w3.org/2000/svg">
<g id="fullscreen-button">
<g id="Rectangle 19">
<rect x="12" y="20" width="2" height="1" fill="white"/>
<rect x="12" y="20" width="2" height="1" fill="white"/>
<rect x="12" y="20" width="2" height="1" fill="white"/>
<rect x="12" y="20" width="2" height="1" fill="white"/>
<rect x="12" y="20" width="2" height="1" fill="white"/>
</g>
<g id="Rectangle 21">
<rect x="11" y="25" width="2" height="1" transform="rotate(-180 11 25)" fill="white"/>
<rect x="11" y="25" width="2" height="1" transform="rotate(-180 11 25)" fill="white"/>
<rect x="11" y="25" width="2" height="1" transform="rotate(-180 11 25)" fill="white"/>
<rect x="11" y="25" width="2" height="1" transform="rotate(-180 11 25)" fill="white"/>
<rect x="11" y="25" width="2" height="1" transform="rotate(-180 11 25)" fill="white"/>
</g>
<g id="Rectangle 20">
<rect x="13" y="20" width="1" height="2" fill="white"/>
<rect x="13" y="20" width="1" height="2" fill="white"/>
<rect x="13" y="20" width="1" height="2" fill="white"/>
<rect x="13" y="20" width="1" height="2" fill="white"/>
<rect x="13" y="20" width="1" height="2" fill="white"/>
</g>
<g id="Rectangle 22">
<rect x="10" y="25" width="1" height="2" transform="rotate(-180 10 25)" fill="white"/>
<rect x="10" y="25" width="1" height="2" transform="rotate(-180 10 25)" fill="white"/>
<rect x="10" y="25" width="1" height="2" transform="rotate(-180 10 25)" fill="white"/>
<rect x="10" y="25" width="1" height="2" transform="rotate(-180 10 25)" fill="white"/>
<rect x="10" y="25" width="1" height="2" transform="rotate(-180 10 25)" fill="white"/>
</g>
</g>
</svg>
