<svg width="1024" height="1024" viewBox="0 0 1024 1024" fill="none" xmlns="http://www.w3.org/2000/svg">
<g filter="url(#filter0_d)">
<path d="M100 390.72C100 291.141 100 241.351 118.763 203.051C136.728 166.381 166.381 136.728 203.051 118.763C241.351 100 291.141 100 390.72 100H633.28C732.859 100 782.649 100 820.949 118.763C857.619 136.728 887.272 166.381 905.237 203.051C924 241.351 924 291.141 924 390.72V633.28C924 732.859 924 782.649 905.237 820.949C887.272 857.619 857.619 887.272 820.949 905.237C782.649 924 732.859 924 633.28 924H390.72C291.141 924 241.351 924 203.051 905.237C166.381 887.272 136.728 857.619 118.763 820.949C100 782.649 100 732.859 100 633.28V390.72Z" fill="white"/>
<path d="M100 390.72C100 291.141 100 241.351 118.763 203.051C136.728 166.381 166.381 136.728 203.051 118.763C241.351 100 291.141 100 390.72 100H633.28C732.859 100 782.649 100 820.949 118.763C857.619 136.728 887.272 166.381 905.237 203.051C924 241.351 924 291.141 924 390.72V633.28C924 732.859 924 782.649 905.237 820.949C887.272 857.619 857.619 887.272 820.949 905.237C782.649 924 732.859 924 633.28 924H390.72C291.141 924 241.351 924 203.051 905.237C166.381 887.272 136.728 857.619 118.763 820.949C100 782.649 100 732.859 100 633.28V390.72Z" fill="url(#paint0_linear)"/>
</g>
<g clip-path="url(#clip0)">
<path fill-rule="evenodd" clip-rule="evenodd" d="M776.557 491.173C776.557 548.084 734.385 590.189 657.219 590.189C611.009 590.189 577.361 568.905 567.042 549.935C566.594 530.039 569.734 504.128 575.566 482.844C578.258 479.143 589.923 479.143 593.063 483.77C593.961 496.725 596.653 515.695 606.074 532.353C619.533 556.875 640.171 568.905 664.397 568.905C692.213 568.905 717.786 549.472 717.786 512.919C717.786 489.785 705.672 470.814 680.1 451.844L668.884 443.515C641.517 423.156 619.982 397.245 619.982 366.245C619.982 307.02 667.538 269.542 729.899 270.004C762.65 270.467 792.708 280.184 812 294.99C806.168 307.945 798.541 329.229 792.26 356.528C788.671 362.081 777.455 360.693 774.763 356.528C780.147 322.752 764.893 291.288 727.207 291.288C693.11 291.288 673.37 318.125 673.37 341.259C673.37 355.603 680.1 373.648 711.505 395.395L725.412 405.111C751.434 423.156 776.557 449.993 776.557 491.173ZM402.361 333.129C379.926 333.129 379.926 334.496 379.926 359.789V479.416C379.926 498.557 380.606 499.924 398.962 499.924H445.873C481.225 499.924 489.384 495.139 496.182 462.327L499.582 445.237C504.341 439.768 521.337 439.768 524.737 445.921C523.377 467.795 522.697 492.405 522.697 518.381C522.697 544.357 523.377 568.966 524.737 590.841C521.337 596.994 504.341 597.677 499.582 591.525L496.182 574.435C489.384 541.623 481.225 536.154 445.873 536.154H398.962C380.606 536.154 379.926 536.838 379.926 557.345V638.692C379.926 670.137 382.645 692.012 390.804 703.633C399.642 715.938 412.559 721.406 462.189 721.406C521.337 721.406 544.453 719.356 581.845 642.11C587.284 634.591 604.281 637.325 607 645.528C604.281 681.075 587.964 736.445 578.446 754.902C542.413 753.535 477.146 752.852 421.398 752.852H333.015C300.382 752.852 267.069 753.535 216.079 754.902C210.64 750.801 210.64 734.395 216.079 730.977L248.033 726.192C278.626 721.407 282.706 717.305 282.706 654.415V399.437C282.706 337.23 278.626 333.129 248.033 326.976L231.036 323.559C224.917 319.457 225.597 303.734 232.396 299.633C264.349 301 297.663 301.684 330.296 301.684H474.427C517.938 301.684 556.69 301 565.528 299.633C565.801 304.015 566.728 314.54 567.96 328.528C569.803 349.456 572.329 378.137 574.367 405.589C571.647 413.109 556.01 414.476 549.212 408.323C541.733 384.398 532.215 363.89 523.377 354.32C510.46 341.332 490.064 333.129 456.75 333.129H402.361Z" fill="white"/>
</g>
<defs>
<filter id="filter0_d" x="78" y="89" width="868" height="868" filterUnits="userSpaceOnUse" color-interpolation-filters="sRGB">
<feFlood flood-opacity="0" result="BackgroundImageFix"/>
<feColorMatrix in="SourceAlpha" type="matrix" values="0 0 0 0 0 0 0 0 0 0 0 0 0 0 0 0 0 0 127 0"/>
<feOffset dy="11"/>
<feGaussianBlur stdDeviation="11"/>
<feColorMatrix type="matrix" values="0 0 0 0 0 0 0 0 0 0 0 0 0 0 0 0 0 0 0.28 0"/>
<feBlend mode="normal" in2="BackgroundImageFix" result="effect1_dropShadow"/>
<feBlend mode="normal" in="SourceGraphic" in2="effect1_dropShadow" result="shape"/>
</filter>
<linearGradient id="paint0_linear" x1="512" y1="100" x2="512" y2="924" gradientUnits="userSpaceOnUse">
<stop stop-opacity="0.9"/>
<stop offset="1"/>
</linearGradient>
<clipPath id="clip0">
<rect width="600" height="484.902" fill="white" transform="translate(212 270)"/>
</clipPath>
</defs>
</svg>
