<svg width="200" height="250" viewBox="0 0 200 250" fill="none" xmlns="http://www.w3.org/2000/svg">
<g clip-path="url(#clip0_2_3)">
<rect width="200" height="250" fill="#080808"/>
<path d="M26.0648 188.818C26.0648 188.818 56.7954 176.526 66.952 172.139C73.2082 169.435 78.4041 164.502 79.6882 157.355C79.3452 156.999 79.005 156.634 78.6762 156.255L74.1096 151.019C73.0182 149.766 71.9835 148.474 70.9772 147.159C66.575 162.52 45.5957 167.184 31.1417 165.945C51.3663 157.339 46.4086 114.151 43.8715 92.0496C43.6669 90.2675 43.478 88.6225 43.3194 87.1438C41.7377 87.7378 39.2857 88.2978 35.0337 87.2541C42.4136 83.6416 42.7695 72.9081 42.9446 67.6273C42.9735 66.7561 42.9975 66.0333 43.0473 65.5153C46.5339 29.4113 71.2947 13.417 100.18 20.0976C102.6 18.7212 105.963 18.6166 109.41 18.5095C115.17 18.3304 121.163 18.1441 123.376 12C126.863 15.4789 126.834 18.607 125.59 21.6022C142.082 23.1126 158.342 36.041 158.894 70.284C158.906 71.0254 158.865 72.1158 158.815 73.4528C158.518 81.4089 157.893 98.0994 166.086 101.979C159.923 104.083 157.585 101.724 157.585 101.724C149.001 149.56 160.386 160.441 164.626 162.019C141.796 162.019 137.713 149.049 135.157 140.928C134.936 140.225 134.726 139.558 134.516 138.94C132.044 143.205 129.173 147.258 125.89 151.019L122.1 155.367C122.656 163.642 128.32 169.141 135.049 172.28C145.858 177.326 174.221 188.668 174.221 188.668C189.67 195.131 200 212.443 200 231.868V250H0V232.137C0 212.582 10.4684 195.181 26.0648 188.818Z" fill="#262626"/>
</g>
<defs>
<clipPath id="clip0_2_3">
<rect width="200" height="250" fill="white"/>
</clipPath>
</defs>
</svg>
