<svg width="512" height="512" viewBox="0 0 512 512" fill="none" xmlns="http://www.w3.org/2000/svg">
<g clip-path="url(#clip0)">
<path fill-rule="evenodd" clip-rule="evenodd" d="M481.756 237.622C481.756 286.158 445.769 322.067 379.92 322.067C340.488 322.067 311.775 303.915 302.969 287.736C302.587 270.769 305.266 248.671 310.243 230.52C312.54 227.363 322.494 227.363 325.174 231.309C325.94 242.358 328.237 258.536 336.276 272.742C347.762 293.655 365.372 303.915 386.046 303.915C409.782 303.915 431.604 287.342 431.604 256.168C431.604 236.439 421.267 220.26 399.445 204.081L389.874 196.979C366.521 179.616 348.145 157.519 348.145 131.08C348.145 80.5716 388.726 48.609 441.94 49.0036C469.888 49.3982 495.538 57.6848 512 70.312C507.023 81.3608 500.515 99.5124 495.155 122.794C492.092 127.529 482.521 126.345 480.224 122.794C484.818 93.988 471.802 67.1552 439.643 67.1552C410.547 67.1552 393.702 90.042 393.702 109.772C393.702 122.005 399.445 137.394 426.244 155.94L438.112 164.227C460.317 179.616 481.756 202.503 481.756 237.622ZM162.442 102.838C143.297 102.838 143.297 104.004 143.297 125.574V227.596C143.297 243.92 143.877 245.086 159.541 245.086H199.571C229.739 245.086 236.701 241.005 242.502 213.022L245.403 198.447C249.464 193.783 263.968 193.783 266.869 199.03C265.708 217.686 265.128 238.673 265.128 260.826C265.128 282.98 265.708 303.967 266.869 322.623C263.968 327.869 249.464 328.452 245.403 323.206L242.502 308.631C236.701 280.648 229.739 275.984 199.571 275.984H159.541C143.877 275.984 143.297 276.567 143.297 294.056V363.431C143.297 390.249 145.617 408.904 152.579 418.815C160.121 429.308 171.144 433.972 213.495 433.972C263.968 433.972 283.693 432.223 315.601 366.346C320.242 359.933 334.746 362.265 337.067 369.261C334.746 399.576 320.822 446.798 312.7 462.538C281.952 461.372 226.258 460.789 178.686 460.789H103.267C75.4194 460.789 46.9921 461.372 3.48089 462.538C-1.1603 459.041 -1.1603 445.049 3.48089 442.134L30.7479 438.053C56.8546 433.972 60.3355 430.474 60.3355 376.84V159.387C60.3355 106.336 56.8546 102.838 30.7479 97.5911L16.2442 94.6762C11.0228 91.1783 11.603 77.7697 17.4045 74.2718C44.6715 75.4378 73.0988 76.0208 100.946 76.0208H223.938C261.067 76.0208 294.136 75.4378 301.678 74.2718C301.91 78.0086 302.701 86.9848 303.752 98.9142C305.325 116.763 307.481 141.222 309.22 164.634C306.899 171.047 293.555 172.213 287.754 166.966C281.372 146.562 273.25 129.072 265.708 120.91C254.685 109.834 237.281 102.838 208.854 102.838H162.442Z" fill="white"/>
</g>
<defs>
<clipPath id="clip0">
<rect width="512" height="512" fill="white"/>
</clipPath>
</defs>
</svg>
